<svg width="27" height="26" viewBox="0 0 27 26" fill="none" xmlns="http://www.w3.org/2000/svg">
<g clip-path="url(#clip0_41_1522)">
<path d="M11.3675 12.0322C11.6599 13.636 12.3931 14.615 13.8315 14.9931C15.2886 15.3758 16.3829 14.7824 17.3616 13.7974C19.1001 12.0471 20.8809 10.3372 22.6287 8.59589C24.1015 7.12811 24.1499 5.20445 22.7694 3.95938C21.4124 2.73524 19.4972 2.86228 18.0167 4.28522C17.0239 5.23883 16.2078 6.58404 15.0118 7.05337C13.8971 7.48982 12.3853 7.00106 11.28 6.9338C13.1623 5.04751 15.0009 2.7741 17.2835 1.0313C19.6645 -0.78773 23.2947 -0.064304 25.3725 2.14932C27.4128 4.32259 27.5988 7.78876 25.5586 9.99341C23.3964 12.3311 21.1341 14.606 18.7265 16.712C15.9327 19.1543 11.3347 18.4115 9.27883 15.3952C8.91768 14.8631 8.80824 14.464 9.39452 13.9812C10.0449 13.4461 10.5983 12.8019 11.366 12.0337L11.3675 12.0322Z" fill="#178435"/>
<path d="M15.8545 14.1396C14.6006 10.6047 12.0585 10.0562 9.54457 12.4626C7.82013 14.1127 6.08163 15.7509 4.37126 17.413C2.92199 18.8225 2.83913 20.6953 4.13206 21.9583C5.48441 23.2781 7.41834 23.1885 8.97236 21.7371C9.00207 21.7102 9.03177 21.6818 9.05991 21.6534C10.0292 20.7357 10.8469 19.4428 12.0132 19.0123C13.0951 18.6132 14.5506 19.1349 16.1875 19.2814C13.8877 21.3186 11.8944 23.444 9.5305 25.0822C7.05875 26.7951 3.45198 25.979 1.48522 23.7056C-0.479982 21.4337 -0.536265 18.0348 1.5587 15.8585C3.71307 13.621 5.95812 11.4492 8.31417 9.40748C11.1643 6.93826 15.8029 7.67664 17.8384 10.7572C18.1933 11.2938 18.2996 11.6824 17.7243 12.1741C17.0833 12.7227 16.5533 13.3908 15.8529 14.1381L15.8545 14.1396Z" fill="#178435"/>
</g>
<defs>
<clipPath id="clip0_41_1522">
<rect width="27" height="26" fill="white"/>
</clipPath>
</defs>
</svg>
