<svg width="28" height="30" viewBox="0 0 28 30" fill="none" xmlns="http://www.w3.org/2000/svg">
<g clip-path="url(#clip0_41_1506)">
<path d="M28.0002 18.4376C28.0002 21.5914 28.0002 24.7462 28.0002 27.9C28.0002 29.2272 27.2396 29.9991 25.9289 29.9991C19.81 29.9991 13.6919 29.9991 7.57296 29.9991C6.36573 29.9991 5.56465 29.195 5.56292 27.9784C5.56034 26.3866 5.55602 24.7958 5.56896 23.204C5.57068 22.9386 5.4948 22.8699 5.23783 22.8733C4.13322 22.8864 3.0286 22.8794 1.92398 22.8794C0.796948 22.8794 0.0010376 22.0762 0.0010376 20.9352C0.0010376 18.3149 0.0010376 15.6936 0.00189991 13.0732C0.00189991 11.8975 0.767629 11.1177 1.93002 11.1134C3.04412 11.109 4.15822 11.1038 5.27233 11.1168C5.51636 11.1195 5.56896 11.0385 5.5681 10.8088C5.56034 7.91163 5.58621 5.0145 5.55085 2.11824C5.53447 0.789333 6.55458 -0.0113173 7.66178 -3.746e-06C11.4473 0.0391585 15.2346 0.0226233 19.021 0.00695843C19.7988 0.00347734 20.4188 0.260207 20.9655 0.818052C23.0833 2.97807 25.2184 5.12067 27.3491 7.26937C27.7932 7.71756 28.001 8.258 28.0002 8.88895C27.9984 12.0715 27.9993 15.2541 27.9993 18.4376H28.0002ZM27.0439 18.4863C27.0439 15.3124 27.0413 12.1394 27.049 8.96553C27.049 8.68966 26.9852 8.59828 26.6903 8.60089C24.9148 8.61656 23.1393 8.61046 21.3647 8.60872C20.2463 8.60785 19.4901 7.85768 19.4866 6.73503C19.4806 4.92399 19.4788 3.11383 19.4875 1.30279C19.4883 1.06086 19.434 0.97296 19.1779 0.97296C15.3061 0.980792 11.4344 0.977311 7.56261 0.979922C6.90899 0.979922 6.52267 1.37241 6.52267 2.0286C6.52095 4.94488 6.5244 7.86116 6.51577 10.7774C6.51577 11.0429 6.59424 11.1116 6.85207 11.1108C9.6287 11.1029 12.4045 11.109 15.1811 11.1073C16.5298 11.1073 17.2644 11.8409 17.2653 13.2038C17.267 15.758 17.2679 18.3123 17.2679 20.8665C17.2679 22.1014 16.4832 22.882 15.2656 22.8803C12.4519 22.876 9.63733 22.8803 6.82362 22.8733C6.59424 22.8733 6.51664 22.9299 6.5175 23.1736C6.52785 24.7845 6.52181 26.3945 6.52353 28.0053C6.52353 28.5275 6.76239 28.833 7.24529 29.0096C7.58331 29.1332 7.9153 29.0357 8.24987 29.0357C14.1325 29.0375 20.0161 29.0314 25.8987 29.0453C26.5791 29.0471 27.0585 28.6232 27.0525 27.8922C27.0284 24.7566 27.0421 21.621 27.043 18.4854L27.0439 18.4863ZM8.61808 21.9152V21.9169C10.8368 21.9169 13.0555 21.9178 15.2734 21.9169C15.9494 21.9169 16.3099 21.554 16.3099 20.8804C16.3107 18.3079 16.3107 15.7354 16.3107 13.1629C16.3107 12.4179 15.9744 12.0768 15.2415 12.0768C10.8515 12.0768 6.46145 12.0776 2.0723 12.0785C1.26259 12.0785 0.957337 12.3857 0.957337 13.1951C0.957337 15.7484 0.957337 18.3018 0.957337 20.8552C0.957337 21.5618 1.29536 21.9143 1.99211 21.9152C4.20134 21.9169 6.41057 21.9152 8.61894 21.9152H8.61808ZM20.4619 1.74141C20.4524 1.80668 20.4369 1.85977 20.4369 1.91285C20.4369 3.53243 20.4334 5.152 20.4429 6.77158C20.4455 7.30941 20.8008 7.64098 21.3518 7.64272C22.9186 7.6462 24.4854 7.64446 26.0531 7.64098C26.129 7.64098 26.223 7.68275 26.2781 7.59747C24.3457 5.65067 22.4159 3.70822 20.4627 1.74141H20.4619Z" fill="#178435"/>
<path d="M6.75618 17.0086C6.75618 16.2559 6.76135 15.5031 6.75273 14.7512C6.751 14.5745 6.80016 14.5249 6.97607 14.5284C7.5702 14.5397 8.16519 14.5266 8.76018 14.5353C9.91309 14.5527 10.5357 15.0671 10.7797 16.2115C10.8978 16.7676 10.8944 17.3289 10.765 17.8833C10.5365 18.8641 9.90188 19.4088 8.90332 19.4506C8.25314 19.4776 7.60124 19.4541 6.94934 19.4654C6.77084 19.468 6.751 19.3836 6.75359 19.2391C6.75963 18.8675 6.75532 18.4959 6.75532 18.1243C6.75532 17.7527 6.75532 17.3811 6.75532 17.0095L6.75618 17.0086ZM7.75818 16.9799C7.75818 17.4568 7.76077 17.9329 7.75646 18.4098C7.75559 18.5429 7.77715 18.6239 7.94013 18.6169C8.24194 18.6038 8.54547 18.6221 8.84641 18.6047C9.33275 18.5751 9.61645 18.3436 9.732 17.8676C9.8648 17.3237 9.86738 16.7693 9.75184 16.2237C9.63974 15.6937 9.31465 15.43 8.77829 15.3908C8.54288 15.3743 8.30575 15.3847 8.0712 15.3603C7.83234 15.336 7.73662 15.3995 7.75042 15.6658C7.77456 16.1027 7.75732 16.5422 7.75646 16.9808L7.75818 16.9799Z" fill="#178435"/>
<path d="M2.217 16.9921C2.217 16.2584 2.22217 15.5248 2.21355 14.7912C2.21096 14.6014 2.25322 14.5222 2.46189 14.5275C3.16985 14.5449 3.8778 14.5301 4.5849 14.551C5.4015 14.5753 5.92406 15.1097 5.95683 15.9199C5.99391 16.8337 5.52222 17.4646 4.697 17.5577C4.30465 17.6021 3.9054 17.603 3.5096 17.5926C3.26729 17.5856 3.20348 17.6709 3.2121 17.9032C3.22849 18.341 3.21038 18.7796 3.22072 19.2174C3.22504 19.3966 3.18106 19.4636 2.98618 19.4654C2.217 19.4715 2.217 19.4793 2.217 18.7056C2.217 18.1339 2.217 17.5621 2.217 16.9912V16.9921ZM3.21814 16.047C3.21814 16.2271 3.21986 16.4081 3.21814 16.5883C3.21728 16.6875 3.24659 16.7554 3.35869 16.7562C3.72604 16.7597 4.09769 16.7849 4.45555 16.6962C4.95138 16.5726 5.08158 15.9756 4.72976 15.5962C4.49435 15.3429 4.20117 15.3812 3.91833 15.369C3.21814 15.3403 3.21728 15.3473 3.219 16.0461L3.21814 16.047Z" fill="#178435"/>
<path d="M11.6851 16.9859C11.6851 16.2523 11.6912 15.5195 11.6808 14.7859C11.6782 14.5875 11.7394 14.5239 11.9369 14.5257C12.8992 14.5344 13.8616 14.5335 14.8239 14.5283C14.9791 14.5283 15.0343 14.5674 15.0395 14.7337C15.0593 15.362 15.0662 15.362 14.4557 15.362C13.9366 15.362 13.4175 15.3672 12.8992 15.3594C12.7432 15.3568 12.6742 15.402 12.6845 15.5674C12.7035 15.8694 12.5655 16.2497 12.7389 16.4533C12.9079 16.6517 13.2899 16.5073 13.5779 16.5177C13.8987 16.529 14.2194 16.5238 14.5402 16.5186C14.6696 16.5169 14.7385 16.5604 14.7256 16.6987C14.7239 16.7179 14.7256 16.737 14.7256 16.7562C14.7377 17.1617 14.544 17.3642 14.1444 17.3636C13.7572 17.3636 13.3701 17.3767 12.9838 17.3584C12.7552 17.348 12.6707 17.4045 12.6802 17.6526C12.7001 18.1756 12.6785 18.7004 12.6897 19.2234C12.6932 19.4105 12.638 19.4636 12.45 19.4653C11.6868 19.4697 11.6868 19.4766 11.6868 18.6986C11.6868 18.1269 11.6868 17.556 11.6868 16.9842H11.6851V16.9859Z" fill="#178435"/>
</g>
<defs>
<clipPath id="clip0_41_1506">
<rect width="28" height="30" fill="white"/>
</clipPath>
</defs>
</svg>
