<svg width="18" height="18" viewBox="0 0 18 18" fill="none" xmlns="http://www.w3.org/2000/svg">
<g clip-path="url(#clip0_15_62)">
<path d="M7.21534 -0.000287231C7.46922 0.0442748 7.72233 0.0911418 7.97659 0.132631C8.45977 0.211767 8.92374 0.356978 9.37312 0.547519C10.4009 0.983151 11.2705 1.63698 11.9737 2.50133C12.6347 3.31344 13.0857 4.23426 13.3149 5.26034C13.6126 6.59067 13.5189 7.89066 13.0334 9.1649C12.7546 9.89672 12.3597 10.5575 11.8489 11.1483C11.2313 11.8628 10.4966 12.4241 9.64313 12.8336C8.94179 13.1701 8.20474 13.3783 7.43504 13.4571C6.3815 13.565 5.356 13.4279 4.36277 13.0506C3.64069 12.7763 2.98314 12.3937 2.39703 11.8932C1.69032 11.29 1.12726 10.5736 0.712067 9.73806C0.459341 9.22944 0.269221 8.69892 0.155532 8.14689C-0.00885479 7.35053 -0.0587854 6.54957 0.0867816 5.73669C0.220442 4.99105 0.437064 4.27882 0.789268 3.61078C1.06197 3.0937 1.39804 2.61965 1.79902 2.18902C2.15314 1.8087 2.53914 1.46911 2.96701 1.17792C3.39872 0.884039 3.86154 0.647399 4.34856 0.456474C4.94542 0.222523 5.56955 0.113423 6.19906 0.0231463C6.23171 0.0185364 6.26359 0.00739588 6.29547 -0.000671387C6.60235 -0.000671387 6.90885 -0.000671387 7.21573 -0.000671387L7.21534 -0.000287231ZM11.817 6.75893C11.8251 3.9738 9.57361 1.6777 6.74715 1.68116C3.94066 1.68462 1.68495 3.92502 1.67765 6.74664C1.67035 9.56173 3.94949 11.819 6.73447 11.8225C9.54365 11.8259 11.8128 9.56481 11.8166 6.75932L11.817 6.75893Z" fill="white"/>
<path d="M18 16.5114C17.9129 16.7377 17.8487 16.9766 17.7335 17.1879C17.404 17.7914 16.5244 18.146 15.8922 17.942C15.4398 17.796 15.121 17.501 14.8041 17.1825C14.3593 16.7357 13.9142 16.289 13.469 15.8426C13.0135 15.3862 12.5568 14.931 12.1025 14.4738C11.7457 14.115 11.3915 13.7535 11.0493 13.4063C11.466 13.0486 11.9147 12.7075 12.3095 12.313C12.7028 11.92 13.0423 11.4732 13.4149 11.0387C13.7317 11.3591 14.0663 11.6995 14.4031 12.0375C14.8583 12.4939 15.3165 12.9476 15.772 13.4043C16.2206 13.8542 16.6669 14.306 17.1144 14.757C17.2588 14.9025 17.4059 15.0458 17.5472 15.1949C17.7673 15.4265 17.8848 15.7116 17.9628 16.0162C17.9732 16.0573 17.9878 16.0973 18.0004 16.1376V16.5114H18Z" fill="white"/>
<path d="M6.72305 2.82738C4.40435 2.86618 2.81118 4.78004 2.83 6.72426H3.93001C3.93769 5.95018 4.2173 5.2952 4.7531 4.75892C5.29196 4.21918 5.95259 3.94105 6.72344 3.93183V2.827L6.72305 2.82738Z" fill="white"/>
<path d="M6.72295 2.82739V3.93222C5.9521 3.94144 5.29148 4.21957 4.75261 4.75931C4.2172 5.29559 3.9372 5.95058 3.92952 6.72465H2.82951C2.81069 4.78044 4.40386 2.86619 6.72257 2.82778L6.72295 2.82739Z" fill="white"/>
</g>
<defs>
<clipPath id="clip0_15_62">
<rect width="18" height="18" fill="white"/>
</clipPath>
</defs>
</svg>
