<svg width="32" height="32" viewBox="0 0 32 32" fill="none" xmlns="http://www.w3.org/2000/svg">
<g clip-path="url(#clip0_95_353)">
<path d="M12.8272 -0.00053776C13.2785 0.0786837 13.7285 0.162003 14.1805 0.235761C15.0395 0.376447 15.8643 0.6346 16.6632 0.97334C18.4904 1.7478 20.0363 2.91017 21.2866 4.44679C22.4617 5.89053 23.2633 7.52755 23.6709 9.35169C24.2001 11.7167 24.0335 14.0278 23.1704 16.2931C22.6747 17.5941 21.9728 18.7688 21.0646 19.8192C19.9667 21.0894 18.6605 22.0872 17.1433 22.8152C15.8964 23.4135 14.5861 23.7837 13.2178 23.9237C11.3448 24.1156 9.5217 23.8718 7.75595 23.2011C6.47226 22.7135 5.30329 22.0333 4.26131 21.1434C3.00494 20.0712 2.00394 18.7975 1.26582 17.3121C0.816525 16.4079 0.478533 15.4647 0.276421 14.4833C-0.0158232 13.0676 -0.104589 11.6436 0.154197 10.1985C0.391816 8.87295 0.776922 7.60677 1.40306 6.41913C1.88786 5.49989 2.48532 4.65714 3.19817 3.89156C3.82773 3.21544 4.51395 2.61172 5.27461 2.09405C6.04209 1.5716 6.86488 1.1509 7.73068 0.811482C8.79177 0.395569 9.90134 0.201614 11.0205 0.0411218C11.0785 0.0329265 11.1352 0.0131211 11.1919 -0.0012207C11.7374 -0.0012207 12.2823 -0.0012207 12.8279 -0.0012207L12.8272 -0.00053776ZM21.008 12.0159C21.0223 7.06451 17.0197 2.98256 11.9948 2.98871C7.00554 2.99485 2.99538 6.97778 2.98241 11.994C2.96943 16.9986 7.02124 21.0116 11.9723 21.0177C16.9664 21.0239 21.0005 17.0041 21.0073 12.0165L21.008 12.0159Z" fill="white"/>
<path d="M31.9999 29.3536C31.8449 29.7559 31.7309 30.1806 31.526 30.5563C30.9402 31.6292 29.3766 32.2595 28.2526 31.8969C27.4483 31.6374 26.8816 31.1129 26.3182 30.5467C25.5275 29.7524 24.7362 28.9582 23.9448 28.1646C23.135 27.3533 22.3231 26.544 21.5153 25.7313C20.881 25.0934 20.2515 24.4508 19.6431 23.8334C20.3839 23.1976 21.1814 22.5911 21.8834 21.8897C22.5826 21.1911 23.1862 20.3968 23.8485 19.6244C24.4118 20.194 25.0066 20.7991 25.6054 21.4C26.4145 22.2114 27.2291 23.0179 28.0389 23.83C28.8365 24.6297 29.6299 25.4328 30.4254 26.2346C30.6821 26.4934 30.9436 26.7482 31.1949 27.0132C31.5861 27.425 31.7951 27.9317 31.9337 28.4733C31.9521 28.5464 31.9781 28.6174 32.0006 28.6891V29.3536H31.9999Z" fill="white"/>
<path d="M11.952 5.02644C7.8299 5.09542 4.9976 8.49784 5.03105 11.9542H6.98663C7.00029 10.5781 7.49737 9.41367 8.4499 8.46028C9.40788 7.50074 10.5823 7.00629 11.9527 6.9899V5.02576L11.952 5.02644Z" fill="white"/>
<path d="M11.952 5.02649V6.99063C10.5816 7.00703 9.40715 7.50148 8.44916 8.46101C7.49732 9.4144 6.99955 10.5788 6.9859 11.955H5.03032C4.99686 8.49857 7.82917 5.09547 11.9513 5.02717L11.952 5.02649Z" fill="white"/>
</g>
<defs>
<clipPath id="clip0_95_353">
<rect width="32" height="32" fill="white"/>
</clipPath>
</defs>
</svg>
